<?xml version="1.0" encoding="UTF-8" standalone="no"?>
<!-- Created with Inkscape (http://www.inkscape.org/) -->
<svg
   xmlns:dc="http://purl.org/dc/elements/1.1/"
   xmlns:cc="http://creativecommons.org/ns#"
   xmlns:rdf="http://www.w3.org/1999/02/22-rdf-syntax-ns#"
   xmlns:svg="http://www.w3.org/2000/svg"
   xmlns="http://www.w3.org/2000/svg"
   xmlns:xlink="http://www.w3.org/1999/xlink"
   xmlns:sodipodi="http://sodipodi.sourceforge.net/DTD/sodipodi-0.dtd"
   xmlns:inkscape="http://www.inkscape.org/namespaces/inkscape"
   width="22"
   height="22"
   id="svg2"
   sodipodi:version="0.32"
   inkscape:version="0.46"
   version="1.0"
   sodipodi:docname="favicon.svg"
   inkscape:output_extension="org.inkscape.output.svg.inkscape"
   inkscape:export-filename="/home/jengelh/code/vitalnix/doc/favicon.png"
   inkscape:export-xdpi="90"
   inkscape:export-ydpi="90">
  <defs
     id="defs4">
    <inkscape:perspective
       sodipodi:type="inkscape:persp3d"
       inkscape:vp_x="0 : 526.18109 : 1"
       inkscape:vp_y="0 : 1000 : 0"
       inkscape:vp_z="744.09448 : 526.18109 : 1"
       inkscape:persp3d-origin="372.04724 : 350.78739 : 1"
       id="perspective10" />
  </defs>
  <sodipodi:namedview
     id="base"
     pagecolor="#ffffff"
     bordercolor="#666666"
     borderopacity="1.0"
     gridtolerance="10000"
     guidetolerance="10"
     objecttolerance="10"
     inkscape:pageopacity="0.0"
     inkscape:pageshadow="2"
     inkscape:zoom="16"
     inkscape:cx="13.042215"
     inkscape:cy="7.8732987"
     inkscape:document-units="px"
     inkscape:current-layer="layer2"
     showgrid="true"
     inkscape:window-width="1023"
     inkscape:window-height="758"
     inkscape:window-x="1671"
     inkscape:window-y="1289">
    <inkscape:grid
       type="xygrid"
       id="grid2383"
       visible="true"
       enabled="true" />
  </sodipodi:namedview>
  <metadata
     id="metadata7">
    <rdf:RDF>
      <cc:Work
         rdf:about="">
        <dc:format>image/svg+xml</dc:format>
        <dc:type
           rdf:resource="http://purl.org/dc/dcmitype/StillImage" />
        <dc:title>Vitalnix Favicon</dc:title>
        <dc:date>2009-09-04</dc:date>
        <dc:creator>
          <cc:Agent>
            <dc:title>Jan Engelhardt &lt;jengelh@medozas.de&gt;</dc:title>
          </cc:Agent>
        </dc:creator>
        <dc:rights>
          <cc:Agent>
            <dc:title></dc:title>
          </cc:Agent>
        </dc:rights>
        <dc:publisher>
          <cc:Agent>
            <dc:title></dc:title>
          </cc:Agent>
        </dc:publisher>
        <cc:license
           rdf:resource="http://creativecommons.org/licenses/by-sa/3.0/" />
      </cc:Work>
      <cc:License
         rdf:about="http://creativecommons.org/licenses/by-sa/3.0/">
        <cc:permits
           rdf:resource="http://creativecommons.org/ns#Reproduction" />
        <cc:permits
           rdf:resource="http://creativecommons.org/ns#Distribution" />
        <cc:requires
           rdf:resource="http://creativecommons.org/ns#Notice" />
        <cc:requires
           rdf:resource="http://creativecommons.org/ns#Attribution" />
        <cc:permits
           rdf:resource="http://creativecommons.org/ns#DerivativeWorks" />
        <cc:requires
           rdf:resource="http://creativecommons.org/ns#ShareAlike" />
      </cc:License>
    </rdf:RDF>
  </metadata>
  <g
     inkscape:groupmode="layer"
     id="layer2"
     inkscape:label="L-2">
    <path
       style="fill:#000000;fill-opacity:1;stroke:none;stroke-width:1;stroke-linecap:square;stroke-linejoin:miter;stroke-miterlimit:4;stroke-opacity:1"
       d="M 11,0 L 11,1 L 17,1 L 17,0 L 11,0 z M 17,1 L 17,2 L 18,2 L 18,1 L 17,1 z M 18,2 L 18,3 L 19,3 L 19,2 L 18,2 z M 19,3 L 19,4 L 20,4 L 20,3 L 19,3 z M 20,4 L 20,5 L 21,5 L 21,4 L 20,4 z M 21,5 L 21,6 L 22,6 L 22,5 L 21,5 z M 21,6 L 20,6 L 20,7 L 21,7 L 21,6 z M 20,7 L 19,7 L 19,8 L 20,8 L 20,7 z M 19,8 L 18,8 L 18,9 L 19,9 L 19,8 z M 18,9 L 17,9 L 17,10 L 18,10 L 18,9 z M 17,10 L 11,10 L 11,11 L 17,11 L 17,10 z M 11,10 L 11,9 L 10,9 L 10,10 L 11,10 z M 10,9 L 10,8 L 9,8 L 9,9 L 10,9 z M 9,8 L 9,7 L 8,7 L 8,8 L 9,8 z M 8,7 L 8,6 L 7,6 L 7,7 L 8,7 z M 7,6 L 7,5 L 6,5 L 6,6 L 7,6 z M 7,5 L 8,5 L 8,4 L 7,4 L 7,5 z M 8,4 L 9,4 L 9,3 L 8,3 L 8,4 z M 9,3 L 10,3 L 10,2 L 9,2 L 9,3 z M 10,2 L 11,2 L 11,1 L 10,1 L 10,2 z"
       id="path3338" />
    <path
       style="fill:#bbc6d0;fill-opacity:0.75294118;fill-rule:evenodd;stroke:none;stroke-width:1px;stroke-linecap:butt;stroke-linejoin:miter;stroke-opacity:1"
       d="M 11,1 L 11,2 L 10,2 L 10,3 L 9,3 L 9,4 L 8,4 L 8,5 L 7,5 L 7,6 L 8,6 L 8,7 L 9,7 L 9,8 L 10,8 L 10,9 L 11,9 L 11,10 L 17,10 L 17,9 L 18,9 L 18,8 L 19,8 L 19,7 L 20,7 L 20,6 L 21,6 L 21,5 L 20,5 L 20,4 L 19,4 L 19,3 L 18,3 L 18,2 L 17,2 L 17,1 L 11,1 z"
       id="path3341" />
    <text
       xml:space="preserve"
       style="font-size:12.73717307999999981px;font-style:italic;font-variant:normal;font-weight:bold;font-stretch:normal;text-align:start;line-height:100%;writing-mode:lr-tb;text-anchor:start;fill:#000040;fill-opacity:1;stroke:none;stroke-width:1px;stroke-linecap:butt;stroke-linejoin:miter;stroke-opacity:1;font-family:Times New Roman;-inkscape-font-specification:Times New Roman Bold Italic"
       x="-0.3545014"
       y="21.825859"
       id="text3369"
       sodipodi:linespacing="100%"><tspan
         sodipodi:role="line"
         id="tspan3371"
         x="-0.3545014"
         y="21.825859">v</tspan></text>
    <rect
       style="opacity:1;fill:#808080;fill-opacity:1;stroke:none;stroke-width:1;stroke-linecap:square;stroke-linejoin:miter;stroke-miterlimit:4;stroke-dasharray:none;stroke-opacity:1"
       id="rect3395"
       width="1"
       height="1"
       x="16"
       y="10" />
  </g>
  <g
     inkscape:groupmode="layer"
     id="layer3"
     inkscape:label="L-1">
    <use
       x="0"
       y="0"
       xlink:href="#path3341"
       id="use3355"
       transform="translate(-6,5)"
       width="22"
       height="22" />
    <use
       x="0"
       y="0"
       xlink:href="#path3338"
       id="use3362"
       transform="translate(-6,5)"
       width="22"
       height="22" />
  </g>
  <g
     inkscape:groupmode="layer"
     id="layer4"
     inkscape:label="L-0">
    <use
       x="0"
       y="0"
       xlink:href="#path3341"
       id="use3357"
       transform="translate(-1,10)"
       width="22"
       height="22" />
    <use
       x="0"
       y="0"
       xlink:href="#path3338"
       id="use3364"
       transform="translate(-1,10)"
       width="22"
       height="22" />
  </g>
</svg>
